<?xml version="1.0" encoding="UTF-8"?>
<svg width="181px" height="146px" viewBox="0 0 181 146" version="1.1" xmlns="http://www.w3.org/2000/svg" xmlns:xlink="http://www.w3.org/1999/xlink">
    <!-- Generator: Sketch 61.2 (89653) - https://sketch.com -->
    <title>Pinout</title>
    <desc>Created with Sketch.</desc>
    <g id="Page-1" stroke="none" stroke-width="1" fill="none" fill-rule="evenodd">
        <g id="Pinout" transform="translate(1.000000, -1.000000)">
            <g id="Names" transform="translate(105.000000, 74.000000) rotate(-90.000000) translate(-105.000000, -74.000000) translate(31.500000, -2.500000)" fill="#7F7F7F" font-family="Arial-Black, Arial Black" font-size="12" font-weight="700">
                <g id="6" transform="translate(9.000000, 0.000000)">
                    <text>
                        <tspan x="-2.50111043e-12" y="13">5V</tspan>
                    </text>
                </g>
                <g id="5" transform="translate(120.000000, 0.000000)">
                    <text>
                        <tspan x="0.21259" y="13.244728">5V</tspan>
                    </text>
                </g>
                <g id="4" transform="translate(0.000000, 35.000000)">
                    <text>
                        <tspan x="0.21259" y="13.68073">12V</tspan>
                    </text>
                </g>
                <g id="3" transform="translate(120.000000, 35.000000)">
                    <text>
                        <tspan x="0.21259" y="13.1138">12V</tspan>
                    </text>
                </g>
                <g id="2" transform="translate(58.500000, 109.000000) rotate(90.000000) translate(-58.500000, -109.000000) translate(40.000000, 100.000000)">
                    <text>
                        <tspan x="0.21259" y="13.97993">SENS</tspan>
                    </text>
                </g>
                <g id="1" transform="translate(92.500000, 121.500000) rotate(90.000000) translate(-92.500000, -121.500000) translate(61.500000, 112.500000)">
                    <text>
                        <tspan x="0.21259" y="13.54686">FAN PWR</tspan>
                    </text>
                </g>
            </g>
            <g id="Header" transform="translate(53.712741, 73.000000) rotate(90.000000) translate(-53.712741, -73.000000) translate(18.212741, 19.500000)">
                <g id="Pins" transform="translate(8.000000, 8.000000)" fill="#7F7F7F" fill-rule="nonzero">
                    <path d="M54.00787,80.582673 C54.00787,85.474963 50.04189,89.440943 45.14961,89.440943 C40.25732,89.440943 36.29134,85.474963 36.29134,80.582673 C36.29134,75.690393 40.25732,71.724413 45.14961,71.724413 C50.04189,71.724413 54.00787,75.690393 54.00787,80.582673 Z" id="6"></path>
                    <path d="M18.57479,80.582673 C18.57479,85.474963 14.60881,89.440943 9.71653,89.440943 C4.82424,89.440943 0.85826,85.474963 0.85826,80.582673 C0.85826,75.690393 4.82424,71.724413 9.71653,71.724413 C14.60881,71.724413 18.57479,75.690393 18.57479,80.582673 Z" id="5"></path>
                    <path d="M54.00787,45.149602 C54.00787,50.041892 50.04189,54.007872 45.14961,54.007872 C40.25732,54.007872 36.29134,50.041892 36.29134,45.149602 C36.29134,40.257322 40.25732,36.291342 45.14961,36.291342 C50.04189,36.291342 54.00787,40.257322 54.00787,45.149602 Z" id="4"></path>
                    <path d="M18.57479,45.149602 C18.57479,50.041892 14.60881,54.007872 9.71653,54.007872 C4.82424,54.007872 0.85826,50.041892 0.85826,45.149602 C0.85826,40.257322 4.82424,36.291342 9.71653,36.291342 C14.60881,36.291342 18.57479,40.257322 18.57479,45.149602 Z" id="3"></path>
                    <path d="M54.00787,9.716535 C54.00787,14.608825 50.04189,18.574805 45.14961,18.574805 C40.25732,18.574805 36.29134,14.608825 36.29134,9.716535 C36.29134,4.824255 40.25732,0.858275 45.14961,0.858275 C50.04189,0.858275 54.00787,4.824255 54.00787,9.716535 Z" id="2"></path>
                    <rect id="1" x="0.85828" y="0.858272" width="17.716536" height="17.716536"></rect>
                </g>
                <rect id="Rect-2" stroke="#7F7F7F" stroke-width="1.77165353" stroke-linejoin="round" x="40.5" y="4.2127407" width="25" height="63"></rect>
                <polygon id="Rect-1" stroke="#7F7F7F" stroke-width="1.77165353" stroke-linejoin="round" points="4.5 4.2127407 31.5 4.2127407 31.5 67.2127407 4.5 67.2127407 4.5 17.6393032"></polygon>
                <rect id="Rect-0" stroke="#7F7F7F" stroke-width="1.77165353" stroke-linejoin="round" x="1.42108547e-14" y="-2.84217094e-14" width="70.866142" height="107"></rect>
            </g>
            <g id="Pins" transform="translate(14.420451, 44.084697)" fill="#FFFFFF" font-family="Arial-Black, Arial Black" font-size="12" font-weight="700">
                <g id="6" transform="translate(0.579549, 36.915303)">
                    <text>
                        <tspan x="0.24432" y="13.1138">6</tspan>
                    </text>
                </g>
                <g id="5" transform="translate(0.579549, 0.915303)">
                    <text>
                        <tspan x="1.15463195e-13" y="13.8858046">5</tspan>
                    </text>
                </g>
                <g id="4" transform="translate(34.579549, 36.915303)">
                    <text>
                        <tspan x="0.28827" y="13.75397">4</tspan>
                    </text>
                </g>
                <g id="3" transform="translate(34.579549, 0.915303)">
                    <text>
                        <tspan x="0.88449" y="13.68073">3</tspan>
                    </text>
                </g>
                <g id="2" transform="translate(71.579549, 37.029498)">
                    <text>
                        <tspan x="1.15463195e-13" y="13.8858046">2</tspan>
                    </text>
                </g>
                <g id="1" transform="translate(70.579549, 1.029498)">
                    <text>
                        <tspan x="1.15463195e-13" y="13.8858046">1</tspan>
                    </text>
                </g>
            </g>
        </g>
    </g>
</svg>