<?xml version="1.0" encoding="UTF-8"?>
<svg width="146px" height="187px" viewBox="0 0 146 187" version="1.1" xmlns="http://www.w3.org/2000/svg" xmlns:xlink="http://www.w3.org/1999/xlink">
    <!-- Generator: Sketch 61.2 (89653) - https://sketch.com -->
    <title>Pinout</title>
    <desc>Created with Sketch.</desc>
    <g id="Page-1" stroke="none" stroke-width="1" fill="none" fill-rule="evenodd">
        <g id="Pinout" transform="translate(1.000000, -2.000000)">
            <g id="Names" transform="translate(71.500000, 95.000000) rotate(-90.000000) translate(-71.500000, -95.000000) translate(-23.000000, 32.000000)" fill="#7F7F7F" font-family="Arial-Black, Arial Black" font-size="12" font-weight="700">
                <g id="8" opacity="0.800000012" transform="translate(16.000000, 0.000000)">
                    <text>
                        <tspan x="0.41339" y="13.247658">NC</tspan>
                    </text>
                </g>
                <g id="7" transform="translate(129.500000, 0.500000)">
                    <text>
                        <tspan x="0.41339" y="13.1138">5VF</tspan>
                    </text>
                </g>
                <g id="6" transform="translate(0.500000, 37.500000)">
                    <text>
                        <tspan x="-2.50111043e-12" y="13">MFET</tspan>
                    </text>
                </g>
                <g id="5" transform="translate(129.000000, 38.000000)">
                    <text>
                        <tspan x="0.21259" y="13.244728">PWM</tspan>
                    </text>
                </g>
                <g id="4" transform="translate(9.500000, 72.500000)">
                    <text>
                        <tspan x="0.21259" y="13.68073">FAN</tspan>
                    </text>
                </g>
                <g id="3" transform="translate(129.000000, 73.000000)">
                    <text>
                        <tspan x="0.21259" y="13.1138">GND</tspan>
                    </text>
                </g>
                <g id="2" transform="translate(4.000000, 108.000000)">
                    <text>
                        <tspan x="0.21259" y="13.97993">PWM</tspan>
                    </text>
                </g>
                <g id="1" transform="translate(129.000000, 108.000000)">
                    <text>
                        <tspan x="0.21259" y="13.54686">GROUND</tspan>
                    </text>
                </g>
            </g>
            <g id="Header" transform="translate(71.712741, 106.000000) rotate(90.000000) translate(-71.712741, -106.000000) translate(36.212741, 34.500000)">
                <g id="Pins" transform="translate(8.000000, 8.000000)" fill="#7F7F7F" fill-rule="nonzero">
                    <path d="M54.00787,116.015744 C54.00787,120.908034 50.04189,124.874014 45.14961,124.874014 C40.25732,124.874014 36.29134,120.908034 36.29134,116.015744 C36.29134,111.123464 40.25732,107.157484 45.14961,107.157484 C50.04189,107.157484 54.00787,111.123464 54.00787,116.015744 Z" id="8"></path>
                    <path d="M18.57479,116.015744 C18.57479,120.908034 14.60881,124.874014 9.71653,124.874014 C4.82424,124.874014 0.85826,120.908034 0.85826,116.015744 C0.85826,111.123464 4.82424,107.157484 9.71653,107.157484 C14.60881,107.157484 18.57479,111.123464 18.57479,116.015744 Z" id="7"></path>
                    <path d="M54.00787,80.582673 C54.00787,85.474963 50.04189,89.440943 45.14961,89.440943 C40.25732,89.440943 36.29134,85.474963 36.29134,80.582673 C36.29134,75.690393 40.25732,71.724413 45.14961,71.724413 C50.04189,71.724413 54.00787,75.690393 54.00787,80.582673 Z" id="6"></path>
                    <path d="M18.57479,80.582673 C18.57479,85.474963 14.60881,89.440943 9.71653,89.440943 C4.82424,89.440943 0.85826,85.474963 0.85826,80.582673 C0.85826,75.690393 4.82424,71.724413 9.71653,71.724413 C14.60881,71.724413 18.57479,75.690393 18.57479,80.582673 Z" id="5"></path>
                    <path d="M54.00787,45.149602 C54.00787,50.041892 50.04189,54.007872 45.14961,54.007872 C40.25732,54.007872 36.29134,50.041892 36.29134,45.149602 C36.29134,40.257322 40.25732,36.291342 45.14961,36.291342 C50.04189,36.291342 54.00787,40.257322 54.00787,45.149602 Z" id="4"></path>
                    <path d="M18.57479,45.149602 C18.57479,50.041892 14.60881,54.007872 9.71653,54.007872 C4.82424,54.007872 0.85826,50.041892 0.85826,45.149602 C0.85826,40.257322 4.82424,36.291342 9.71653,36.291342 C14.60881,36.291342 18.57479,40.257322 18.57479,45.149602 Z" id="3"></path>
                    <path d="M54.00787,9.716535 C54.00787,14.608825 50.04189,18.574805 45.14961,18.574805 C40.25732,18.574805 36.29134,14.608825 36.29134,9.716535 C36.29134,4.824255 40.25732,0.858275 45.14961,0.858275 C50.04189,0.858275 54.00787,4.824255 54.00787,9.716535 Z" id="2"></path>
                    <rect id="1" x="0.85828" y="0.858272" width="17.716536" height="17.716536"></rect>
                </g>
                <rect id="Rect-2" stroke="#7F7F7F" stroke-width="1.77165353" stroke-linejoin="round" x="40.5" y="39.2127407" width="25" height="63"></rect>
                <rect id="Rect-1" stroke="#7F7F7F" stroke-width="1.77165353" stroke-linejoin="round" x="4.5" y="75.2127407" width="27" height="63"></rect>
                <rect id="Rect-0" stroke="#7F7F7F" stroke-width="1.77165353" stroke-linejoin="round" x="0" y="-2.84217094e-14" width="70.866142" height="143"></rect>
            </g>
            <g id="Pins" transform="translate(14.420451, 77.084697)" fill="#FFFFFF" font-family="Arial-Black, Arial Black" font-size="12" font-weight="700">
                <g id="8" transform="translate(1.579549, 36.915303)">
                    <text>
                        <tspan x="1.15463195e-13" y="13.8858046">8</tspan>
                    </text>
                </g>
                <g id="7" transform="translate(0.579549, 0.915303)">
                    <text>
                        <tspan x="0.83762" y="13.54686">7</tspan>
                    </text>
                </g>
                <g id="6" transform="translate(36.579549, 36.915303)">
                    <text>
                        <tspan x="0.24432" y="13.1138">6</tspan>
                    </text>
                </g>
                <g id="5" transform="translate(36.579549, 0.915303)">
                    <text>
                        <tspan x="1.15463195e-13" y="13.8858046">5</tspan>
                    </text>
                </g>
                <g id="4" transform="translate(70.579549, 36.915303)">
                    <text>
                        <tspan x="0.28827" y="13.75397">4</tspan>
                    </text>
                </g>
                <g id="3" transform="translate(70.579549, 0.915303)">
                    <text>
                        <tspan x="0.88449" y="13.68073">3</tspan>
                    </text>
                </g>
                <g id="2" transform="translate(107.579549, 37.029498)">
                    <text>
                        <tspan x="1.15463195e-13" y="13.8858046">2</tspan>
                    </text>
                </g>
                <g id="1" transform="translate(106.579549, 1.029498)">
                    <text>
                        <tspan x="1.15463195e-13" y="13.8858046">1</tspan>
                    </text>
                </g>
            </g>
        </g>
    </g>
</svg>